<?xml version="1.0" encoding="utf-8"?>
<!-- Generator: Adobe Illustrator 23.0.2, SVG Export Plug-In . SVG Version: 6.00 Build 0)  -->
<svg version="1.1" xmlns="http://www.w3.org/2000/svg" xmlns:xlink="http://www.w3.org/1999/xlink" x="0px" y="0px"
	 viewBox="0 0 471.1 757.1" style="enable-background:new 0 0 471.1 757.1;" xml:space="preserve">
<style type="text/css">
	.st0{display:none;}
	.st1{fill:#FFFFFF;stroke:#000000;stroke-miterlimit:10;}
	.st2{fill:#DDDDDD;stroke:#000000;stroke-miterlimit:10;}
</style>
<g id="Layer_1" class="st0">
	
		<image style="display:inline;overflow:visible;" width="5412" height="7216" xlink:href="../../../../Downloads/HyCryo_Media (1).jpg"  transform="matrix(8.640026e-02 0 0 8.640026e-02 -1.8358 0)">
	</image>
</g>
<g id="Layer_2">
	<path class="st1" d="M172.3,40.5h124.7c16.1,0,29.1,13,29.1,29.1v93.1c0,16.1-13,29.1-29.1,29.1H172.3c-16.1,0-29.1-13-29.1-29.1
		V69.6C143.2,53.5,156.2,40.5,172.3,40.5z"/>
	<g>
		<path class="st2" d="M381.2,295.3c-2.6-11.5-8.2-18.5-12.5-23.7c-2.6-3.2-5-5.6-6.7-7.1c-9.4-10.7-18.7-21.3-28.1-32
			c-2.4-3.8-6.6-15.4-9.5-23.5c-1.8-5.2-5.8-8.6-10.1-8.6H153.1c-4.2,0-8,3.1-9.9,8.1c-3.1,8.2-7.8,20.1-10.4,24
			c-10.1,10.7-20.1,21.3-30.2,32c-1.8,1.5-4.3,3.9-7.2,7.1c-4.5,5.2-10.6,12.3-13.4,23.7c-0.7,2.7-1.4,6.9-1.4,12.3v322.7
			c0,31.9,19.4,57.7,43.4,57.7H237h0h105.1c22.3,0,40.4-25.8,40.4-57.7V307.6C382.5,302.2,381.8,298,381.2,295.3z"/>
	</g>
</g>
</svg>
