<?xml version="1.0" encoding="utf-8"?>
<!-- Generator: Adobe Illustrator 23.0.1, SVG Export Plug-In . SVG Version: 6.00 Build 0)  -->
<svg version="1.1" id="Layer_1" xmlns="http://www.w3.org/2000/svg" xmlns:xlink="http://www.w3.org/1999/xlink" x="0px" y="0px"
	 viewBox="0 0 400 400" style="enable-background:new 0 0 400 400;" xml:space="preserve">
<style type="text/css">
	.st0{fill:#FFFFFF;stroke:#010101;stroke-miterlimit:10;}
	.st1{fill:#E4E4E3;stroke:#010101;stroke-miterlimit:10;}
</style>
<path class="st0" d="M253.5,119.7h-107c-16.1,0-29.1-13-29.1-29.1V33.4c0-16.1,13-29.1,29.1-29.1h107c16.1,0,29.1,13,29.1,29.1v57.3
	C282.5,106.7,269.5,119.7,253.5,119.7z"/>
<g>
	<path class="st1" d="M332.9,181.3c-2.3-6.3-7.3-10.1-11.1-12.9c-2.3-1.8-4.4-3-5.9-3.9c-8.3-5.8-16.6-11.7-24.9-17.5
		c-2.1-2.1-5.9-8.4-8.4-12.8c-1.6-2.9-5.1-4.7-9-4.7H130.3c-3.7,0-7.1,1.7-8.8,4.4c-2.7,4.5-6.9,11-9.2,13.1
		c-8.9,5.8-17.9,11.7-26.8,17.5c-1.6,0.8-3.9,2.1-6.4,3.9c-4,2.9-9.5,6.7-11.9,12.9c-0.6,1.5-1.2,3.8-1.2,6.7v176.1
		c0,17.4,17.2,31.5,38.5,31.5h100.3h0h93.3c19.8,0,35.8-14.1,35.8-31.5V188.1C334,185.1,333.4,182.8,332.9,181.3z"/>
</g>
</svg>
